HIERARCHY
ROOT Hips
{
	OFFSET -3.958830 18.904000 13.208200
	CHANNELS 6 Xposition Yposition Zposition Zrotation Yrotation Xrotation 
	JOINT LHipJoint
	{
		OFFSET 0.000000 0.000000 0.000000
		CHANNELS 3 Zrotation Yrotation Xrotation
		JOINT LeftUpLeg
		{
			OFFSET 1.800000 -1.400000 0.085000
			CHANNELS 3 Zrotation Yrotation Xrotation
			JOINT LeftLeg
			{
				OFFSET 2.215000 -6.000000 0.000000
				CHANNELS 3 Zrotation Yrotation Xrotation
				JOINT LeftFoot
				{
					OFFSET 2.500000 -6.900000 0.000000
					CHANNELS 3 Zrotation Yrotation Xrotation
					JOINT LeftToeBase
					{
						OFFSET 0.200000 -0.500000 1.950000
						CHANNELS 3 Zrotation Yrotation Xrotation
						End Site
						{
							OFFSET 0.000000 0.000000 0.000000
						}
					}
				}
			}
		}
	}
	JOINT RHipJoint
	{
		OFFSET 0.000000 0.000000 0.000000
		CHANNELS 3 Zrotation Yrotation Xrotation
		JOINT RightUpLeg
		{
			OFFSET -1.800000 -1.400000 0.085000
			CHANNELS 3 Zrotation Yrotation Xrotation
			JOINT RightLeg
			{
				OFFSET -2.215000 -6.000000 0.000000
				CHANNELS 3 Zrotation Yrotation Xrotation
				JOINT RightFoot
				{
					OFFSET -2.500000 -6.900000 0.000000
					CHANNELS 3 Zrotation Yrotation Xrotation
					JOINT RightToeBase
					{
						OFFSET -0.200000 -0.500000 1.950000
						CHANNELS 3 Zrotation Yrotation Xrotation
						End Site
						{
							OFFSET 0.000000 0.000000 0.000000
						}
					}
				}
			}
		}
	}
	JOINT LowerBack
	{
		OFFSET 0.000000 0.000000 0.000000
		CHANNELS 3 Zrotation Yrotation Xrotation
		JOINT Spine
		{
			OFFSET -0.087000 1.940000 -0.288900
			CHANNELS 3 Zrotation Yrotation Xrotation
			JOINT Spine1
			{
				OFFSET 0.000000 1.950000 0.060000
				CHANNELS 3 Zrotation Yrotation Xrotation
				JOINT Neck
				{
					OFFSET 0.000000 0.000000 0.000000
					CHANNELS 3 Zrotation Yrotation Xrotation
					JOINT Neck1
					{
						OFFSET 0.000000 1.600000 0.340000
						CHANNELS 3 Zrotation Yrotation Xrotation
						JOINT Head
						{
							OFFSET 0.000000 1.667000 -0.240000
							CHANNELS 3 Zrotation Yrotation Xrotation
							End Site
							{
								OFFSET 0.000000 0.000000 0.000000
							}
						}
					}
				}
				JOINT LeftShoulder
				{
					OFFSET 0.000000 0.000000 0.000000
					CHANNELS 3 Zrotation Yrotation Xrotation
					JOINT LeftArm
					{
						OFFSET 2.700000 1.550000 -0.730000
						CHANNELS 3 Zrotation Yrotation Xrotation
						JOINT LeftForeArm
						{
							OFFSET 5.450000 0.000000 0.000000
							CHANNELS 3 Zrotation Yrotation Xrotation
							JOINT LeftHand
							{
								OFFSET 3.450000 0.000000 0.000000
								CHANNELS 3 Zrotation Yrotation Xrotation
								JOINT LeftHandIndex1
								{
									OFFSET 0.750000 0.000000 0.000000
									CHANNELS 3 Zrotation Yrotation Xrotation
									End Site
									{
										OFFSET 0.000000 0.000000 0.000000
									}
								}
							}
						}
					}
				}
				JOINT RightShoulder
				{
					OFFSET 0.000000 0.000000 0.000000
					CHANNELS 3 Zrotation Yrotation Xrotation
					JOINT RightArm
					{
						OFFSET -2.700000 1.550000 -0.730000
						CHANNELS 3 Zrotation Yrotation Xrotation
						JOINT RightForeArm
						{
							OFFSET -5.450000 0.000000 0.000000
							CHANNELS 3 Zrotation Yrotation Xrotation
							JOINT RightHand
							{
								OFFSET -3.450000 0.000000 0.000000
								CHANNELS 3 Zrotation Yrotation Xrotation
								JOINT RightHandIndex1
								{
									OFFSET -0.750000 0.000000 0.000000
									CHANNELS 3 Zrotation Yrotation Xrotation
									End Site
									{
										OFFSET 0.000000 0.000000 0.000000
									}
								}
							}
						}
					}
				}
			}
		}
	}
}
MOTION
Frames: 8
Frame Time: 0.016667
-0.330100 17.437950 -5.993610 -8.771593 80.374188 -6.160180 -15.749215 12.532676 2.974004 6.016046 -1.753209 -13.496511 -13.110008 5.512387 5.367903 -0.340317 4.397457 3.378309 0.328100 0.106240 0.074300 17.813904 -10.589914 2.813091 -3.124796 0.410863 -9.091970 8.604082 -3.999331 3.490338 -0.080942 -3.902138 3.179627 0.240490 0.787170 0.307370 -4.953783 -0.805332 -7.064642 12.791386 -1.408762 4.931655 -8.662499 -0.155911 17.899920 1.934402 -2.637733 -9.986661 -5.436255 3.957245 28.856812 -1.284970 1.909880 4.694120 -5.639377 -4.352910 5.411107 -55.323442 -35.465233 16.734726 131.600534 -12.049083 -47.513690 -4.047216 3.565656 -0.083240 0.596280 -0.452280 0.353900 2.023433 5.783581 5.619116 52.471484 24.143567 3.649009 -126.236956 22.766311 -59.808428 1.758115 -2.505039 -0.215230 0.194460 -0.018810 0.041930 
-0.419440 17.422660 -6.018300 -10.267776 80.605968 -10.158960 -15.798164 12.619090 3.000232 6.822645 -1.470720 -11.615288 -13.940428 5.820094 5.570325 -0.387528 4.647694 3.228150 0.445200 0.206300 0.173200 17.754136 -10.592978 2.753694 -3.590818 0.189612 -8.095277 9.138469 -4.420797 5.128084 -0.173873 -3.955248 3.077747 0.310130 0.672610 0.304210 -5.082723 -0.771241 -7.129684 13.044562 -2.127725 8.447656 -7.723499 -0.685108 19.451316 1.177552 -3.698041 -9.407525 -7.288123 4.383210 29.015045 0.749960 0.416930 -1.112160 -7.468439 -7.202494 5.100571 -53.710878 -37.855598 14.984729 132.195098 -8.997391 -43.848508 -3.923130 3.569429 0.044730 0.469380 -0.367620 0.321660 5.423122 9.469779 5.367097 47.642175 27.631361 2.598641 -128.002040 19.105337 -57.128549 1.692834 -2.465702 -0.207880 0.218230 -0.020520 -0.003900 
-0.520760 17.424880 -6.062450 -15.709437 80.088849 -17.341466 -15.854114 12.717682 3.053079 8.004989 -1.310144 -10.446249 -14.403535 5.951884 5.485910 -0.394696 4.804535 3.100689 0.596390 0.335530 0.275130 17.683078 -10.636944 2.632666 -2.706000 0.424574 -9.315573 8.744091 -4.859179 9.203730 -0.234958 -3.839623 2.996398 0.372410 0.548320 0.353550 -5.489616 -0.343928 -7.177752 15.453555 -3.308325 12.243034 -8.428762 -1.657946 19.723570 0.592188 -5.082561 -8.316813 -9.412325 5.428104 28.237762 3.598830 -0.497820 -6.597820 -9.625579 -7.492867 4.399883 -52.771448 -38.639781 14.005274 131.963945 -9.931281 -45.855777 -3.793111 3.643118 0.146120 0.336210 -0.263240 0.319690 8.718337 10.597149 4.398683 45.170551 30.623550 3.073998 -128.126782 19.885693 -58.595630 1.674730 -2.434926 -0.144550 0.174050 -0.054990 -0.019310 
-0.606830 17.452300 -6.106260 -21.540939 81.300460 -26.124383 -15.787606 13.099801 3.219379 8.701271 -0.965233 -7.700382 -14.409394 6.021773 4.842311 -0.373490 4.995548 2.999845 0.641210 0.355910 0.356810 17.688456 -10.626323 2.497818 -2.448326 0.942087 -11.196357 7.997216 -5.735656 16.414399 -0.277907 -3.891078 2.907857 0.362430 0.418110 0.344690 -5.230355 -0.567890 -7.240276 14.917714 -4.740784 18.095926 -7.220159 -2.794912 20.512157 0.517031 -5.556484 -8.113054 -10.174094 5.088680 27.723576 3.879670 -0.546420 -11.937120 -9.910634 -8.554723 4.427663 -51.136906 -38.286878 11.515368 131.339019 -12.524085 -52.056637 -3.707937 3.544789 0.274082 0.215600 -0.171860 0.272990 9.285024 11.968447 4.035919 42.460634 30.855859 0.388164 -128.046500 20.937505 -61.598043 1.696638 -2.319068 -0.136370 0.162650 -0.061210 -0.071820 
-0.707710 17.483270 -6.134090 -22.398518 82.018599 -28.988512 -15.674245 13.348884 3.350968 8.555531 -0.698315 -5.627646 -14.136639 5.951357 4.072498 -0.361580 5.056084 2.977590 0.631080 0.332550 0.398890 17.750970 -10.590237 2.498193 -2.877071 2.088096 -14.968183 7.675683 -6.629511 23.569171 -0.326478 -4.180102 2.770419 0.332740 0.330430 0.307900 -4.702276 -1.177045 -7.342989 12.844533 -5.348706 23.248179 -6.121595 -3.129836 20.705412 0.799171 -5.416918 -8.284995 -10.070504 4.124445 27.979325 2.772410 -0.486630 -15.087890 -10.167296 -9.874966 3.933308 -47.310047 -37.322748 7.803044 129.175681 -14.935665 -54.615558 -3.662511 3.408262 0.371220 0.141360 -0.118480 0.233830 9.042722 13.269616 4.811326 40.932550 28.880264 -2.570476 -126.550154 25.518438 -69.243264 1.752166 -2.127971 -0.159490 0.171040 -0.063310 -0.120220 
-0.826540 17.501680 -6.185470 -29.715610 81.444654 -37.857682 -15.577756 13.667623 3.226042 9.025373 -0.786958 -7.229774 -12.566525 6.397618 7.880725 -0.360070 4.932982 2.976886 0.632690 0.321000 0.505020 17.790960 -10.467060 2.738533 -2.292635 3.637720 -18.864101 7.578034 -7.643981 30.279272 -0.461937 -4.706738 2.538963 0.276590 0.205940 0.320610 -4.492580 -1.378937 -7.428505 13.905115 -6.578643 28.898019 -6.980804 -3.587676 20.043219 2.245647 -5.463832 -8.514483 -10.175239 2.886779 28.168835 -1.038860 0.234120 -17.596130 -10.030882 -9.880434 3.017966 -43.020929 -35.403108 4.001280 125.547432 -19.579988 -58.024127 -3.651313 3.283974 0.417300 0.077700 -0.025920 0.179410 6.061060 12.908227 5.638456 41.366285 26.151445 -5.342050 -124.379546 30.769516 -76.263904 1.872177 -1.981674 -0.115620 0.124020 -0.101340 -0.157340 
-0.945890 17.516870 -6.270670 -35.122337 79.064976 -45.272671 -15.572894 13.849510 2.961554 10.156636 -0.803126 -8.970883 -10.560794 6.889615 12.597428 -0.367661 4.912048 2.922982 0.636040 0.347240 0.555980 17.794289 -10.233997 3.081286 -1.124202 5.643509 -22.303781 7.418400 -8.949584 37.578228 -0.696776 -5.605457 2.213470 0.248250 0.098110 0.315750 -4.691915 -1.036795 -7.535223 17.879437 -8.814833 35.357847 -9.511096 -4.176514 19.576271 3.835330 -6.346628 -8.902865 -11.529135 2.055561 27.672427 -4.081520 0.355520 -20.815280 -8.652735 -9.682015 2.333268 -37.116520 -31.636415 -1.116308 120.252087 -25.643602 -61.367748 -3.643023 3.139711 0.463050 0.013090 0.061780 0.142570 1.574003 12.686139 6.520355 40.942834 22.224244 -9.089371 -121.169503 35.642899 -80.286333 1.955961 -1.845812 -0.076360 0.107720 -0.125060 -0.173530 
-1.075830 17.500170 -6.344460 -35.958258 77.687193 -47.756130 -15.599073 13.912313 2.731192 10.207669 -0.726167 -9.742031 -8.758149 6.839845 14.786330 -0.255408 4.717904 2.960200 0.687030 0.474090 0.598620 17.814202 -9.832941 3.506864 -1.383437 7.919058 -27.183356 7.520811 -10.737133 45.776201 -1.030844 -6.890005 1.788878 0.240990 -0.003840 0.331990 -4.657498 -1.268211 -7.697218 19.094131 -10.940846 42.111767 -10.468405 -5.178061 17.909967 4.480721 -7.746426 -8.930874 -13.902151 1.758199 26.644694 -6.866180 0.355200 -22.907580 -7.003233 -7.397814 1.741429 -32.129314 -26.381469 -4.920846 113.790526 -33.043242 -63.207676 -3.608030 3.047992 0.423640 -0.037100 0.170010 0.157500 -1.422179 11.179317 6.243786 37.651531 18.526809 -10.865725 -115.225138 43.551072 -81.369281 2.049228 -1.661587 0.042310 0.064900 -0.210520 -0.123390 
